<svg width="36" height="36" viewBox="0 0 36 36" fill="none" xmlns="http://www.w3.org/2000/svg">
<path fill-rule="evenodd" clip-rule="evenodd" d="M12.5 0C13.0523 0 13.5 0.447715 13.5 1V3H23.5V1C23.5 0.447715 23.9477 0 24.5 0C25.0523 0 25.5 0.447715 25.5 1V3H29C31.2091 3 33 4.79086 33 7V28C33 30.2091 31.2091 32 29 32H8C5.79086 32 4 30.2091 4 28V7C4 4.79086 5.79086 3 8 3H11.5V1C11.5 0.447715 11.9477 0 12.5 0ZM11.5 5H8C6.89543 5 6 5.89543 6 7V28C6 29.1046 6.89543 30 8 30H29C30.1046 30 31 29.1046 31 28V7C31 5.89543 30.1046 5 29 5H25.5V7C25.5 7.55228 25.0523 8 24.5 8C23.9477 8 23.5 7.55228 23.5 7V5H13.5V7C13.5 7.55228 13.0523 8 12.5 8C11.9477 8 11.5 7.55228 11.5 7V5Z" fill="#9D5CD0"/>
<path fill-rule="evenodd" clip-rule="evenodd" d="M4 13C4 12.4477 4.44772 12 5 12H32C32.5523 12 33 12.4477 33 13C33 13.5523 32.5523 14 32 14H5C4.44772 14 4 13.5523 4 13Z" fill="black"/>
</svg>
